HIERARCHY
ROOT hips
{
  OFFSET 0 9.313263304106702 1.2146308026317778
  CHANNELS 6 Xposition Yposition Zposition Yrotation Xrotation Zrotation
  JOINT spine
  {
    OFFSET -6.402521e-31 0.5173342420023708 0
    CHANNELS 3 Yrotation Xrotation Zrotation
    JOINT chest
    {
      OFFSET 0 1.130544299341115 0
      CHANNELS 3 Yrotation Xrotation Zrotation
      JOINT upperChest
      {
        OFFSET 0 1.0863555061129995 0
        CHANNELS 3 Yrotation Xrotation Zrotation
        JOINT neck
        {
          OFFSET 0 1.3773706506454462 0
          CHANNELS 3 Yrotation Xrotation Zrotation
          JOINT head
          {
            OFFSET 0 0.7374408940073979 0
            CHANNELS 3 Yrotation Xrotation Zrotation
            JOINT leftEye
            {
              OFFSET 0.25066580148932727 0.6408406698778757 0.15963719178883284
              CHANNELS 3 Yrotation Xrotation Zrotation
              End Site
              {
                OFFSET 0.25066580148932727 0.6408406698778757 0.15963719178883284
              }
            }
            JOINT rightEye
            {
              OFFSET -0.25066576739704244 0.6408406384191823 0.15963727561643756
              CHANNELS 3 Yrotation Xrotation Zrotation
              End Site
              {
                OFFSET -0.25066576739704244 0.6408406384191823 0.15963727561643756
              }
            }
          }
        }
        JOINT leftShoulder
        {
          OFFSET 0.3761817444281191 1.0539491987447769 0
          CHANNELS 3 Yrotation Xrotation Zrotation
          JOINT leftUpperArm
          {
            OFFSET 0.8702844380000002 0 0
            CHANNELS 3 Yrotation Xrotation Zrotation
            JOINT leftLowerArm
            {
              OFFSET 2.198527310000323 0 0
              CHANNELS 3 Yrotation Xrotation Zrotation
              JOINT leftHand
              {
                OFFSET 2.146852313968281 0 0
                CHANNELS 3 Yrotation Xrotation Zrotation
                JOINT leftIndexProximal
                {
                  OFFSET 0.6585177834681599 0.07380250427007962 0.18382213159631788
                  CHANNELS 3 Yrotation Xrotation Zrotation
                  JOINT leftIndexIntermediate
                  {
                    OFFSET 0.3323021288626682 -0.009606893929485771 -0.012820872253340998
                    CHANNELS 3 Yrotation Xrotation Zrotation
                    JOINT leftIndexDistal
                    {
                      OFFSET 0.2045908926985518 -0.0071133989147997845 -0.006828784783599051
                      CHANNELS 3 Yrotation Xrotation Zrotation
                      End Site
                      {
                        OFFSET 0.2045908926985518 -0.0071133989147997845 -0.006828784783599051
                      }
                    }
                  }
                }
                JOINT leftLittleProximal
                {
                  OFFSET 0.6110054258835662 0.07380246363125398 -0.29175655876064077
                  CHANNELS 3 Yrotation Xrotation Zrotation
                  JOINT leftLittleIntermediate
                  {
                    OFFSET 0.3144281999999998 -2.5124724523095665e-9 1.8658118799974588e-7
                    CHANNELS 3 Yrotation Xrotation Zrotation
                    JOINT leftLittleDistal
                    {
                      OFFSET 0.18116185580251631 0.002815456192251098 0.0034826415518049436
                      CHANNELS 3 Yrotation Xrotation Zrotation
                      End Site
                      {
                        OFFSET 0.18116185580251631 0.002815456192251098 0.0034826415518049436
                      }
                    }
                  }
                }
                JOINT leftMiddleProximal
                {
                  OFFSET 0.6637478005691111 0.07380246480054087 0.02046981859247815
                  CHANNELS 3 Yrotation Xrotation Zrotation
                  JOINT leftMiddleIntermediate
                  {
                    OFFSET 0.3705733999999994 -2.9611069152224445e-9 9.35054791928458e-8
                    CHANNELS 3 Yrotation Xrotation Zrotation
                    JOINT leftMiddleDistal
                    {
                      OFFSET 0.22861063500000056 -1.82673876025774e-9 -1.6740782024515788e-7
                      CHANNELS 3 Yrotation Xrotation Zrotation
                      End Site
                      {
                        OFFSET 0.22861063500000056 -1.82673876025774e-9 -1.6740782024515788e-7
                      }
                    }
                  }
                }
                JOINT leftRingProximal
                {
                  OFFSET 0.6561845547265777 0.07380246406440083 -0.13588087571513918
                  CHANNELS 3 Yrotation Xrotation Zrotation
                  JOINT leftRingIntermediate
                  {
                    OFFSET 0.3437531000000005 -2.746796123886952e-9 1.4935781944558357e-7
                    CHANNELS 3 Yrotation Xrotation Zrotation
                    JOINT leftRingDistal
                    {
                      OFFSET 0.1983118991198174 -0.002467117924596085 -0.004538141969590015
                      CHANNELS 3 Yrotation Xrotation Zrotation
                      End Site
                      {
                        OFFSET 0.1983118991198174 -0.002467117924596085 -0.004538141969590015
                      }
                    }
                  }
                }
                JOINT leftThumbProximal
                {
                  OFFSET 0.09767004258864787 -0.14930060425447422 -0.07008212897521154
                  CHANNELS 3 Yrotation Xrotation Zrotation
                  JOINT leftThumbIntermediate
                  {
                    OFFSET 0.36682123028154767 -0.015768465060082004 0.28693641268151077
                    CHANNELS 3 Yrotation Xrotation Zrotation
                    JOINT leftThumbDistal
                    {
                      OFFSET 0.21091084272403915 -0.016756648201192714 0.1933767059105508
                      CHANNELS 3 Yrotation Xrotation Zrotation
                      End Site
                      {
                        OFFSET 0.21091084272403915 -0.016756648201192714 0.1933767059105508
                      }
                    }
                  }
                }
              }
            }
          }
        }
        JOINT rightShoulder
        {
          OFFSET -0.37618174442811925 1.0539491987447769 0
          CHANNELS 3 Yrotation Xrotation Zrotation
          JOINT rightUpperArm
          {
            OFFSET -0.870284438 0 0
            CHANNELS 3 Yrotation Xrotation Zrotation
            JOINT rightLowerArm
            {
              OFFSET -2.1985273100003235 0 0
              CHANNELS 3 Yrotation Xrotation Zrotation
              JOINT rightHand
              {
                OFFSET -2.1468523139682802 0 0
                CHANNELS 3 Yrotation Xrotation Zrotation
                JOINT rightIndexProximal
                {
                  OFFSET -0.6585177834681599 0.07380250427007962 0.18382213159631788
                  CHANNELS 3 Yrotation Xrotation Zrotation
                  JOINT rightIndexIntermediate
                  {
                    OFFSET -0.3323021288626682 -0.009606893929485771 -0.012820872253340998
                    CHANNELS 3 Yrotation Xrotation Zrotation
                    JOINT rightIndexDistal
                    {
                      OFFSET -0.2045908926985518 -0.0071133989147997845 -0.006828784783599051
                      CHANNELS 3 Yrotation Xrotation Zrotation
                      End Site
                      {
                        OFFSET -0.2045908926985518 -0.0071133989147997845 -0.006828784783599051
                      }
                    }
                  }
                }
                JOINT rightLittleProximal
                {
                  OFFSET -0.6110054258835662 0.07380246363125398 -0.29175655876064077
                  CHANNELS 3 Yrotation Xrotation Zrotation
                  JOINT rightLittleIntermediate
                  {
                    OFFSET -0.3144281999999998 -2.5124724523095665e-9 1.8658118799974588e-7
                    CHANNELS 3 Yrotation Xrotation Zrotation
                    JOINT rightLittleDistal
                    {
                      OFFSET -0.18116185580251631 0.002815456192251098 0.0034826415518049436
                      CHANNELS 3 Yrotation Xrotation Zrotation
                      End Site
                      {
                        OFFSET -0.18116185580251631 0.002815456192251098 0.0034826415518049436
                      }
                    }
                  }
                }
                JOINT rightMiddleProximal
                {
                  OFFSET -0.6637478005691111 0.07380246480054087 0.02046981859247815
                  CHANNELS 3 Yrotation Xrotation Zrotation
                  JOINT rightMiddleIntermediate
                  {
                    OFFSET -0.3705733999999994 -2.9611069152224445e-9 9.35054791928458e-8
                    CHANNELS 3 Yrotation Xrotation Zrotation
                    JOINT rightMiddleDistal
                    {
                      OFFSET -0.22861063500000056 -1.82673876025774e-9 -1.6740782024515788e-7
                      CHANNELS 3 Yrotation Xrotation Zrotation
                      End Site
                      {
                        OFFSET -0.22861063500000056 -1.82673876025774e-9 -1.6740782024515788e-7
                      }
                    }
                  }
                }
                JOINT rightRingProximal
                {
                  OFFSET -0.6561845547265777 0.07380246406440083 -0.13588087571513918
                  CHANNELS 3 Yrotation Xrotation Zrotation
                  JOINT rightRingIntermediate
                  {
                    OFFSET -0.3437531000000005 -2.746796123886952e-9 1.4935781944558357e-7
                    CHANNELS 3 Yrotation Xrotation Zrotation
                    JOINT rightRingDistal
                    {
                      OFFSET -0.1983118991198174 -0.002467117924596085 -0.004538141969590015
                      CHANNELS 3 Yrotation Xrotation Zrotation
                      End Site
                      {
                        OFFSET -0.1983118991198174 -0.002467117924596085 -0.004538141969590015
                      }
                    }
                  }
                }
                JOINT rightThumbProximal
                {
                  OFFSET -0.09767004258864787 -0.14930060425447422 -0.07008212897521154
                  CHANNELS 3 Yrotation Xrotation Zrotation
                  JOINT rightThumbIntermediate
                  {
                    OFFSET -0.36682123028154767 -0.015768465060082004 0.28693641268151077
                    CHANNELS 3 Yrotation Xrotation Zrotation
                    JOINT rightThumbDistal
                    {
                      OFFSET -0.21091084272403915 -0.016756648201192714 0.1933767059105508
                      CHANNELS 3 Yrotation Xrotation Zrotation
                      End Site
                      {
                        OFFSET -0.21091084272403915 -0.016756648201192714 0.1933767059105508
                      }
                    }
                  }
                }
              }
            }
          }
        }
      }
    }
  }
  JOINT leftUpperLeg
  {
    OFFSET 0.7715603 -0.3993844658041501 0
    CHANNELS 3 Yrotation Xrotation Zrotation
    JOINT leftLowerLeg
    {
      OFFSET 0 -3.529830000249343 0
      CHANNELS 3 Yrotation Xrotation Zrotation
      JOINT leftFoot
      {
        OFFSET 0 -4.154939295409685 0.004208579085223096
        CHANNELS 3 Yrotation Xrotation Zrotation
        JOINT leftToes
        {
          OFFSET 0 -0.6353414391261847 1.10414981190622
          CHANNELS 3 Yrotation Xrotation Zrotation
          End Site
          {
            OFFSET 0 -0.6015820691747853 1.10414981190622
          }
        }
      }
    }
  }
  JOINT rightUpperLeg
  {
    OFFSET -0.7715603 -0.3993844658041501 0
    CHANNELS 3 Yrotation Xrotation Zrotation
    JOINT rightLowerLeg
    {
      OFFSET 0 -3.529830000249343 0
      CHANNELS 3 Yrotation Xrotation Zrotation
      JOINT rightFoot
      {
        OFFSET 0 -4.154939295409685 0.004208579085223096
        CHANNELS 3 Yrotation Xrotation Zrotation
        JOINT rightToes
        {
          OFFSET 0 -0.6353414391261847 1.10414981190622
          CHANNELS 3 Yrotation Xrotation Zrotation
          End Site
          {
            OFFSET 0 -0.6015820691747853 1.10414981190622
          }
        }
      }
    }
  }
}
MOTION
Frames: 4
Frame Time: 0.03333333333333333
0.05305810746821489 8.789557543667879 1.3292618187778307 10.103622603422771 -0.2696451510864174 -4.7031004490389545 -0.7774311002839964 2.6173244993503397 3.419340870981973 -4.604795403015195 -1.236546138620368 1.081830023819084 0 0 0 -1.153229964018523 -3.3668932615914766 -0.9162130689198164 -3.8425778382305715 -1.3463588819369339 0.4006472955748579 0 0 0 0 0 0 -21.130326358010226 7.730295748312493 0.16191881583558615 4.499607155431327 1.6203406889283798 -76.85262591426833 -36.30511793181035 -0.00004152489201197612 0.000015996125587883992 -21.11387965048112 18.64447873455998 -1.6066894994356575 3.495355264316308 0.32099631768500547 4.006752186718215 2.4769751068871044 0.2674435648357445 -16.80495882110776 0.1708862109903303 -0.020356610519708246 -3.8508685603071093 13.753102963720922 3.593929291343489 -30.53506858245948 2.6301915998327976 0.588773255468067 -29.076172255982023 1.5212023319686199 0.09844744028073722 -6.721782379069121 7.621306503155842 0.598690742387753 -16.407458950332966 3.445748708422066 0.6110892405552997 -27.066064891232838 1.8490047670573657 0.2719647199095065 -15.978248001466342 8.00846249869347 0.8689175727529068 -34.27751907141434 2.0007245804014513 0.4219565460398177 -17.157612005906362 1.2117476800322435 0.2988585501594113 -12.578684203183949 10.906376358172473 28.4908310122676 26.165859071606672 17.439885737929306 -8.644433069717179 -15.307161172513768 -11.97078527832533 7.519516057301714 -0.4485638344771746 5.24706612375055 -0.8514442464744537 5.31859910434097 -2.943835526952132 22.067062091009586 72.68798490058973 32.516771575864276 0.00000617287060043731 0.000012276477778131866 9.266865452020047 25.16603355104765 8.018775666688311 0.7847253611900892 -0.9304019803198362 10.760515098555953 -3.36624297520129 0.6315049158779059 26.708753882626368 -0.6008049121942968 -0.16795267122702595 17.434986914646057 -10.249440442214276 2.4181772816100726 44.80773783915203 -4.2909952365247035 1.4900070079728553 48.970571508517196 -2.6878881450899397 -0.44667720516697496 43.283447393856896 -8.167407877917382 0.8540166845618142 22.99311714221977 -4.282203958749259 1.1533683544672955 37.93407816422965 -3.1131931232854226 0.8192239400497952 31.037634069202763 -8.657800046881833 1.2495142768231304 40.81351604624282 -2.6200207529874553 0.7157065377593816 23.76884499623368 -0.2216010258654954 -0.12370325298885614 20.21563871065247 -9.154875262272549 12.525177625746085 -19.385640503888492 -4.318695743816103 5.689594437673378 -13.595108717793913 8.369915910400248 -14.071102008101294 7.2108576472547945 -1.0569943948820844 -22.436554972580044 3.7517719189547885 4.75695059509901 63.9773791251842 11.196422710447841 0.2167912172503845 1.5059910579897011 -1.4849836266695873 0.0000013707202425279474 -1.5671746313051476 -7.497739614169877e-7 -13.01587998442513 -8.288301613915339 11.49259246690306 1.4089392785145116 17.343945835522813 -1.4687663441444474 -4.902073502541843 -7.773459997613296 -4.317453418339271 -7.127969943815845e-7 -2.773167841166493 6.348644242236257e-7
0.07101004096594724 8.814328800548205 1.3151701767123491 8.480570533781764 0.5085491590007293 -3.572189330894943 -0.2607405512405323 2.2208072103569547 2.8657143015993736 -2.5046790638854692 -1.8915049066862566 0.013050878276332584 0 0 0 -1.3111724457246416 -2.923559150434692 -0.6652240865360722 -4.2567676428565875 -0.38008571286510795 0.8727792792467706 0 0 0 0 0 0 -21.215388390039976 7.555024803682496 -0.48927100725848055 7.991783623875492 4.282286893959304 -78.37757529087413 -32.69402020147336 -0.000027688224838618653 0.000024960089353705816 -16.3211637414116 23.00804156479524 -10.523255954744844 4.05628807793936 1.4675173098607697 0.6889247604067993 2.4968634586646368 0.2735118286455987 -17.01052866176486 0.1917289560164963 -0.019690853797956844 -4.056487725360589 14.511239794073997 4.131312841444958 -31.251433551221698 2.6285029532140345 0.5879548702791054 -29.05740266144783 1.5193398653108234 0.09802636250154646 -6.703011294133741 8.744074421781082 0.9653138272031485 -17.989504724014058 3.4438394592040247 0.6101618829892733 -27.044784789497356 1.847411210820294 0.27145725249232067 -15.961574848894646 8.34720095583526 1.0664074580098892 -36.11060117163852 1.9850444257213518 0.41540774056129365 -16.987788978687234 1.195619083942399 0.2935769023942293 -12.407945717088685 11.993560603476364 27.306340835407823 29.87935497827036 10.11908174752817 -4.781956904821388 -15.019465715828932 -20.770213273662886 6.306943062911458 -0.32747963417088255 5.574188592319036 -0.8562391981688525 5.39796410174733 -2.6144194073570803 16.29484258625864 71.96528228578045 33.3971300436673 0.000009659102540115705 -0.00001411291152765834 7.251490881361606 26.319671343050313 6.4991155269009395 1.1267386670513695 -1.0064895293228167 10.954438790823632 -3.367600032725728 0.6321900041646452 26.72380771375698 -0.6023769689148903 -0.1677842769927629 17.45007933336852 -10.158173020774008 2.357460740001387 45.195564803610665 -4.2936623327497285 1.4924580617416694 49.006361026229754 -2.6917616883521003 -0.44539850698291567 43.319308002883226 -7.522167319605503 0.586827509657698 23.568777227929193 -4.283312852017772 1.1541531315546967 37.94765924724149 -3.1140344109416924 0.8197422870312636 31.047369737437677 -8.64720140642917 1.2391202265307992 41.03599310736118 -2.6247422862290906 0.718384982073909 23.822903059089775 -0.22712536552747808 -0.1229577334457733 20.270192009402116 -8.95409203567004 12.16906500135793 -19.571926767378226 -4.683355624986484 5.373145917247025 -13.41830313801255 8.631611727792132 -14.136976545935296 7.117048759403546 -1.4890499117784346 -27.71262167816439 1.0700902722974286 7.193054428412529 56.909007147917194 12.710912465183744 0.6660564171893941 -1.25455498595379 -3.4545661299799106 0.0000033942430297166646 -0.7889361118343753 -0.000001500121882620911 -13.089606432089681 -5.6561110827132515 10.20006511699682 1.2981864174685023 16.89741948178613 -1.8802222338109276 -2.5800487960915515 -9.421452235930396 -4.081945508056425 0.0000016832640077798895 -2.707274655387105 -0.000003206909524774417
0.09299153631383722 8.794623288241299 1.302249237602807 6.061764277000557 1.3875983882751484 -2.3174700573635927 0.2886947622550792 1.739369278401756 2.1667998683118403 -0.13122836661131004 -2.1227978607948668 -0.5502121726664271 0 0 0 -1.2530464038067102 -3.120670251601324 -1.023317421584197 -4.499421049597797 0.16672473938338667 0.9477195350004807 0 0 0 0 0 0 -20.028531715867505 7.071279823969093 -2.3291733999185777 12.411134575501407 7.4344294974088 -77.59694683158214 -32.03499728612424 -0.000034731792282435476 0.000023009799685247677 -13.093883522692217 31.687078492236687 -22.2886499289019 4.353373231224181 2.7761629753997616 -1.0997546999576333 2.508955552864796 0.27722976233091273 -17.13570781960932 0.2044190724673531 -0.019217903191308686 -4.181577933868687 14.646882270620205 4.206925478156324 -31.21297958934807 2.6313090297355104 0.589332773580118 -29.088670671709288 1.5224364178444338 0.0987152654679318 -6.734283692508883 9.507068458384467 1.2292900507822953 -18.520138540635504 3.441880794251015 0.609216061684238 -27.023139725845695 1.845892108508304 0.2709830559602722 -15.945646168214427 8.536850807835584 1.1887154565409679 -36.688700559193556 1.978985866806087 0.41287153969272755 -16.92235505235161 1.1894116725860362 0.2915863565455957 -12.342161006385306 13.112992895851729 26.079023349626844 33.79510884538163 10.832533861492255 4.032020681052509 -14.181466287269911 -24.96087474861362 5.549096287140798 -1.0265347121352988 6.381730691594487 -0.7792681409572253 3.782829998027701 -1.655858532943061 10.66052352961353 72.43617721146595 33.8656990078354 0.0000011285872089485158 0.000007317706220031436 5.747339062084628 25.981592494032522 5.647280677208021 1.4464290499910823 -1.0937941258507615 11.248254020543005 -3.360789428829397 0.6287901250206214 26.648514267326064 -0.5945319102631466 -0.16855753244281274 17.374708767893324 -10.017484758253348 2.258189427223656 45.73869128797952 -4.288852348749563 1.4880404233570386 48.94185462982699 -2.684773702413945 -0.4476986430436434 43.2546941832525 -6.8384281052756615 0.2876102818851156 24.177332441347037 -4.284227165706723 1.154834474514439 37.959219942003635 -3.114622614578048 0.820095785515666 31.054221784379376 -8.647513383584817 1.2355842454999864 41.394542628414634 -2.6313549214093643 0.7221304628347248 23.89868460966739 -0.23492389229635516 -0.12187885457900875 20.346725139430365 -8.258189318517179 12.397671348718355 -19.117101130158765 -4.982303037149754 4.729044413178536 -13.440572692272504 8.865980767146656 -14.195383511416004 7.033187615088972 -1.336244323040775 -31.177807831672315 -0.7330798239723287 7.141960247579643 47.0301434092849 11.192162085048741 0.8151309069521893 -2.1162329727559235 -3.629374843952219 0.0000013243838982526623 -0.13123602313567842 -5.620400397693273e-7 -13.136890168081111 -3.4554492528534078 8.30683124886699 2.4442452311304086 17.186121299582844 -1.682067299908015 0.1522360086388597 -12.367754127973908 -4.017566483589909 -1.5825752448642138e-7 -2.4112209604016086 -8.205986197184814e-7
0.11737868189811707 8.750278299505059 1.2975272357251089 3.2724489562110755 2.1589714601728165 -0.8992534112915996 0.708162738061065 1.372759552674581 1.5716230084110796 1.6773021350434394 -2.3053273608367943 -1.5749583258288602 0 0 0 -1.040966718658234 -3.5020570476785644 -1.428127433815717 -4.087394826275248 0.2643385434123418 0.7724419627700493 0 0 0 0 0 0 -17.07292503443531 6.675064389268369 -4.174717717436052 16.7112554820584 10.489594220881465 -75.73357863496936 -32.02688886340005 -0.00003111129554232234 0.000007079850804510873 -11.928693192229868 42.311940025009264 -32.961483761659 3.6131790008173286 4.142802984627659 1.34451860605928 2.541252505045621 0.28735857557358185 -17.470538325775255 0.23838467968651472 -0.017880795207103173 -4.5166791789481335 13.816374769845531 3.4166358704536917 -28.762762525082152 2.6503083709353352 0.5987629435637677 -29.29929516332715 1.5432189631350708 0.10330944193957727 -6.94505127866721 9.019874267618077 0.9616649230624015 -15.452091244443077 3.432842668915771 0.6048327552268868 -26.92276622442327 1.836202539782918 0.267904554274558 -15.844095086826984 8.387137436918044 1.0993623901463625 -33.83570872286383 1.983916340099205 0.41494460956023077 -16.975785001429056 1.1944756516023503 0.29321740561494414 -12.395876722071353 13.94801640445376 25.028208283793752 37.290788544387404 14.70521339761718 4.841069624382862 -13.060601077464291 -26.663505535618746 5.602748573492198 -0.5593031058987942 7.918023056336506 -0.6589662590798621 2.1540882810112243 0.25096572520881827 5.789163770301547 73.01190533139903 33.99567558587777 -0.000010803455733175816 0.00000912479133762367 5.208752028823817 24.237404529337557 5.62183113403032 1.597824370431165 -1.194104573643484 11.830225665005882 -3.342519110099629 0.6196983368129739 26.446854344982096 -0.5735515383657991 -0.1705754219525573 17.17286988951022 -9.812775229812239 2.095922919222991 46.3260165290781 -4.282782089080564 1.4824979971445333 48.86071822304906 -2.6759705515639327 -0.4505907834105911 43.17345269556941 -6.1776018340541095 -0.02132682761632793 24.871908527336046 -4.284823509222908 1.1552856788485437 37.966322811118204 -3.1148708239744503 0.8202520954683752 31.057140550887823 -8.596596295135924 1.1874620608111255 41.985567246376824 -2.634199343525778 0.7237403278306279 23.931379000267327 -0.23831559662580368 -0.12141434730766515 20.38016965066652 -7.198532078058115 12.778911090056878 -18.39834947287566 -5.335841745827068 4.080945377260484 -13.511146377643765 9.058681483927602 -14.24298227742359 6.964341644283163 -0.0961693810687846 -33.32476699847371 -2.3222990596508315 6.145017252796649 35.39743868924679 8.612834571971048 0.6178878786777933 -2.05519488739143 -2.549598575032516 0.0000059900449463530235 -0.23012631377454934 -3.28085404704836e-7 -13.53277059000213 -1.2169474345635922 5.818893098470983 6.063685850989296 17.59149473640811 -0.6962644766148502 0.3962869348542601 -15.762190395188881 -3.367456600128024 8.991039038918593e-7 -2.392524607790448 -4.230522860995774e-7
